<!DOCTYPE svg PUBLIC "-//W3C//DTD SVG 1.1//EN" "http://www.w3.org/Graphics/SVG/1.1/DTD/svg11.dtd">
<!-- Uploaded to: SVG Repo, www.svgrepo.com, Transformed by: SVG Repo Mixer Tools -->
<svg fill="#d6a44c" height="800px" width="800px" version="1.1" id="Layer_1" xmlns="http://www.w3.org/2000/svg" xmlns:xlink="http://www.w3.org/1999/xlink" viewBox="0 0 512.001 512.001" xml:space="preserve" stroke="#d6a44c">
<g id="SVGRepo_bgCarrier" stroke-width="0"/>
<g id="SVGRepo_tracerCarrier" stroke-linecap="round" stroke-linejoin="round"/>
<g id="SVGRepo_iconCarrier"> <g> <g> <path d="M419.067,310.883h-45.335c-39.442,0-71.53,32.088-71.53,71.53v45.335c0,4.503,3.649,8.153,8.153,8.153h45.335 c39.442,0,71.53-32.088,71.53-71.53v-45.335C427.221,314.534,423.571,310.883,419.067,310.883z M410.914,364.372 c0,30.45-24.773,55.223-55.223,55.223h-37.181v-37.182c0-30.45,24.773-55.223,55.223-55.223h37.181V364.372z"/> </g> </g> <g> <g> <path d="M138.268,310.883H92.933c-4.504,0-8.153,3.651-8.153,8.153v45.335c0,39.442,32.088,71.53,71.53,71.53h45.335 c4.504,0,8.153-3.651,8.153-8.153v-45.335C209.798,342.972,177.71,310.883,138.268,310.883z M193.491,419.595H156.31 c-30.45,0-55.223-24.773-55.223-55.223V327.19h37.181c30.45,0,55.223,24.773,55.223,55.223V419.595z"/> </g> </g> <g> <g> <path d="M386.454,28.234c-24.697,0-48.846,5.033-71.103,14.478c-13.245-13.911-30.61-27.826-43.425-37.437 c-9.379-7.035-22.477-7.033-31.854,0c-12.64,9.48-30.1,23.443-43.419,37.423c-21.857-9.307-45.891-14.463-71.107-14.463 c-4.504,0-8.153,3.651-8.153,8.153v174.544c0,40.129,32.646,72.775,72.774,72.775h42.895v205.357 c0,12.647,10.29,22.937,22.938,22.937s22.938-10.29,22.938-22.937V283.706h42.895c40.128,0,72.774-32.646,72.774-72.775V36.387 C394.607,31.884,390.958,28.234,386.454,28.234z M249.858,18.321c3.616-2.712,8.67-2.712,12.286,0 c9.214,6.911,24.976,19.259,37.696,31.863c-16.097,8.704-30.924,19.851-43.9,33.18c-12.794-13.137-27.542-24.361-43.781-33.18 C224.931,37.528,240.786,25.123,249.858,18.321z M256,495.693c-3.657,0-6.631-2.974-6.631-6.63V283.706h13.262v205.357h0.001 C262.632,492.718,259.657,495.693,256,495.693z M378.301,210.931c0,31.186-25.282,56.468-56.468,56.468h-14.194v-36.731 c0-4.502-3.649-8.151-8.151-8.151h-0.003c-4.502,0-8.151,3.649-8.151,8.151v36.731H190.169c-31.186,0-56.468-25.282-56.468-56.468 V44.739c81.494,3.966,147.718,67.056,156.606,147.185c0.456,4.102,3.965,7.183,8.091,7.183c4.86,0,8.648-4.228,8.11-9.058 c-3.96-35.569-18.207-68.076-39.69-94.474c29.326-30.552,69.247-48.752,111.482-50.832V210.931z"/> </g> </g> </g>
</svg>