<svg xmlns="http://www.w3.org/2000/svg" width="42" height="42" viewBox="0 0 42 42" fill="none" role="img" aria-label="Icono de libro abierto">
  <g stroke="#fffafc" stroke-width="1.9" stroke-linecap="round" stroke-linejoin="round">
    <path d="M21 12.2C18.6 10.9 15.9 10.3 13 10.3C12.1 10.3 11.4 11 11.4 11.9V26.6C11.4 27.2 11.9 27.6 12.5 27.5C15.6 26.9 18.5 27.3 21 28.8"/>
    <path d="M21 12.2C23.4 10.9 26.1 10.3 29 10.3C29.9 10.3 30.6 11 30.6 11.9V26.6C30.6 27.2 30.1 27.6 29.5 27.5C26.4 26.9 23.5 27.3 21 28.8"/>
    <path d="M21 12.2V28.8"/>
    <path d="M14.2 12.5V24.6"/>
    <path d="M27.8 12.5V24.6"/>
  </g>
</svg>
