<!DOCTYPE svg PUBLIC "-//W3C//DTD SVG 1.1//EN" "http://www.w3.org/Graphics/SVG/1.1/DTD/svg11.dtd">
<!-- Uploaded to: SVG Repo, www.svgrepo.com, Transformed by: SVG Repo Mixer Tools -->
<svg fill="#4f3c56" height="800px" width="800px" version="1.1" id="Layer_1" xmlns="http://www.w3.org/2000/svg" xmlns:xlink="http://www.w3.org/1999/xlink" viewBox="0 0 512 512" xml:space="preserve">
<g id="SVGRepo_bgCarrier" stroke-width="0"/>
<g id="SVGRepo_tracerCarrier" stroke-linecap="round" stroke-linejoin="round"/>
<g id="SVGRepo_iconCarrier"> <g> <g> <path d="M490.667,277.332h-21.333v-63.998c0-11.782-9.551-21.333-21.333-21.333h-21.333v-64c0-11.782-9.551-21.333-21.333-21.333 H384v-64c0-11.782-9.551-21.333-21.333-21.333H149.333c-11.782,0-21.333,9.551-21.333,21.333v64h-21.333 c-11.782,0-21.333,9.551-21.333,21.333v64H64c-11.782,0-21.333,9.551-21.333,21.333v63.998H21.333 C9.551,277.332,0,286.884,0,298.666c0,11.782,9.551,21.333,21.333,21.333h42.624c0.014,0,0.028,0.002,0.042,0.002h170.667v42.665 h-21.333c-58.907,0-106.667,47.759-106.667,106.667v21.333h298.667v-21.333c0-58.907-47.759-106.667-106.667-106.667h-21.333 v-42.665H448c0.014,0,0.028-0.002,0.042-0.002h42.624c11.782,0,21.333-9.551,21.333-21.333 C512,286.884,502.449,277.332,490.667,277.332z M359.024,447.999H152.976c8.787-24.856,32.494-42.667,60.358-42.667h85.333 C326.53,405.332,350.237,423.143,359.024,447.999z M170.667,64.001h170.667v42.667H170.667V64.001z M128,149.334h21.333h213.333 H384v42.667H128V149.334z M85.333,234.668h21.333h298.667h21.333v42.664H85.333V234.668z"/> </g> </g> </g>
</svg>