<!DOCTYPE svg PUBLIC "-//W3C//DTD SVG 1.1//EN" "http://www.w3.org/Graphics/SVG/1.1/DTD/svg11.dtd">
<!-- Uploaded to: SVG Repo, www.svgrepo.com, Transformed by: SVG Repo Mixer Tools -->
<svg fill="#4f3c56" height="800px" width="800px" version="1.1" id="Layer_1" xmlns="http://www.w3.org/2000/svg" xmlns:xlink="http://www.w3.org/1999/xlink" viewBox="0 0 513.026 513.026" xml:space="preserve">
<g id="SVGRepo_bgCarrier" stroke-width="0"/>
<g id="SVGRepo_tracerCarrier" stroke-linecap="round" stroke-linejoin="round"/>
<g id="SVGRepo_iconCarrier"> <g> <g> <path d="M477.788,71.34c-32.427-36.693-71.68-55.467-111.787-55.467c-45.227,0-86.187,27.307-110.08,72.533 c-23.04-45.227-64-72.533-108.373-72.533c-40.107,0-77.653,18.773-111.787,55.467c-39.253,43.52-61.44,140.8,16.213,214.187 c35.84,33.28,197.12,203.093,198.827,204.8l5.973,6.827l6.827-6.827c1.707-1.707,163.84-170.667,198.827-204.8 C538.375,212.14,516.188,114.007,477.788,71.34z M448.775,274.433C417.202,304.3,285.788,441.687,255.922,473.26 C226.055,440.833,95.495,304.3,63.068,273.58c-69.12-65.707-49.493-151.893-14.507-190.293c30.72-33.28,64-50.347,98.987-50.347 c42.667,0,81.92,30.72,100.693,79.36l7.68,20.48l8.533-20.48c19.627-48.64,58.027-79.36,101.547-79.36 c35.84,0,69.12,17.067,97.28,51.2C497.415,121.687,517.042,208.727,448.775,274.433z"/> </g> </g> <g> <g> <path d="M255.922,152.407c-33.28,0-59.733,26.453-59.733,59.733c0,33.28,26.453,59.733,59.733,59.733 c33.28,0,59.733-26.453,59.733-59.733C315.655,178.86,289.202,152.407,255.922,152.407z M255.922,254.807 c-23.893,0-42.667-18.773-42.667-42.667c0-23.893,18.773-42.667,42.667-42.667c23.893,0,42.667,18.773,42.667,42.667 C298.588,236.033,279.815,254.807,255.922,254.807z"/> </g> </g> <g> <g> <path d="M389.042,139.607c-7.68-5.12-16.213-5.973-24.747-2.56l-75.947,30.72c-2.56,0.853-5.12,3.413-5.12,5.973 s0.853,5.973,2.56,7.68c8.533,8.533,12.8,18.773,12.8,30.72s-4.267,23.04-12.8,30.72c-2.56,1.707-3.413,5.12-2.56,7.68 c0.853,2.56,2.56,5.12,5.12,5.973l75.947,30.72c3.413,0.853,6.827,1.707,10.24,1.707c5.973,0,11.093-1.707,14.507-4.267 c7.68-5.12,11.947-13.653,11.947-22.187V161.793C400.989,152.407,396.722,144.727,389.042,139.607z M383.922,263.34 c0,3.413-1.707,5.973-4.267,7.68s-5.973,1.707-8.533,0.853l-64.853-26.453c5.973-10.24,9.387-22.187,9.387-33.28 s-3.413-23.04-9.387-32.427l64.853-26.453c2.56-0.853,5.973-0.853,8.533,0.853s4.267,4.267,4.267,7.68V263.34z"/> </g> </g> <g> <g> <path d="M214.108,212.14c0-11.947,4.267-23.04,12.8-30.72c2.56-1.707,3.413-5.12,2.56-7.68c-0.853-2.56-2.56-5.12-5.12-5.973 l-75.947-30.72c-8.533-3.413-17.067-2.56-24.747,2.56s-11.947,13.653-11.947,22.187v100.693c0,9.387,4.267,17.067,11.947,22.187 c4.267,2.56,9.387,4.267,14.507,4.267c2.56,0,5.973-0.853,10.24-1.707l75.947-30.72c2.56-0.853,4.267-3.413,5.12-5.973 c0-2.56-0.853-5.973-2.56-7.68C218.375,234.327,214.108,224.087,214.108,212.14z M141.575,271.02 c-2.56,0.853-5.973,0.853-8.533-0.853s-4.267-4.267-4.267-7.68V161.793c0-3.413,1.707-5.973,4.267-7.68 c1.707-0.853,3.413-1.707,5.12-1.707c0.853,0,1.707,0.853,2.56,0.853l64.853,26.453c-5.973,9.387-9.387,20.48-9.387,32.427 s4.267,23.04,10.24,32.427L141.575,271.02z"/> </g> </g> <g> <g> <path d="M294.322,242.86c-3.413-0.853-6.827-0.853-9.387,1.707c-16.213,14.507-41.813,14.507-57.173,0 c-2.56-2.56-5.973-3.413-9.387-1.707c-3.413,0.853-5.12,4.267-5.12,7.68v89.6c0,3.413,2.56,6.827,5.973,8.533 c2.56,0.853,6.827,0,8.533-2.56l28.16-28.16l28.16,28.16c1.707,1.707,3.413,2.56,5.973,2.56c1.707,0,2.56,0,4.267-0.853 c3.413-0.853,5.12-4.267,5.12-7.68v-89.6C299.442,247.127,297.735,243.713,294.322,242.86z M281.522,319.66l-19.627-19.627 c-1.707-1.707-3.413-2.56-5.973-2.56c-1.707,0-4.267,0.853-5.973,2.56l-19.627,19.627V265.9c16.213,7.68,34.987,7.68,51.2,0 V319.66z"/> </g> </g> <g> <g> <path d="M264.455,154.113l-181.76-115.2c-3.413-1.707-6.827-1.707-9.387,0c-13.653,8.533-26.453,19.627-38.4,32.427 c-10.24,11.947-19.627,27.307-25.6,44.373c-1.707,4.267,0,7.68,3.413,10.24l102.4,64.853c0.853,0.853,2.56,1.707,4.267,1.707 s3.413,0,4.267-0.853c2.56-1.707,4.267-4.267,4.267-7.68v-22.187c0-3.413,1.707-5.973,4.267-7.68s5.973-1.707,8.533-0.853 l75.947,30.72c3.413,1.707,6.827,0.853,9.387-1.707c7.68-7.68,18.773-11.947,29.867-11.947c0.853,0,2.56,0,3.413,0 c3.413,0,7.68-2.56,8.533-5.973C269.575,160.087,267.868,155.82,264.455,154.113z M219.228,166.06l-70.827-28.16 c-8.533-3.413-17.067-2.56-24.747,2.56s-11.947,13.653-11.947,22.187v5.973l-83.627-52.907c5.12-12.8,11.947-23.893,19.627-32.427 c10.24-11.093,19.627-19.627,30.72-27.307l157.867,99.84C230.322,158.38,224.348,161.793,219.228,166.06z"/> </g> </g> <g> <g> <path d="M459.868,282.967c-0.853-2.56-2.56-4.267-4.267-5.973l-58.88-37.547c-2.56-1.707-5.973-1.707-8.533,0 c-2.56,1.707-4.267,4.267-4.267,7.68v17.067v0.853c-0.853,2.56-2.56,5.12-5.12,6.827c-0.853,0.853-4.267,2.56-7.68,0.853l-64-25.6 l-7.68-5.973c-3.413-2.56-8.533-2.56-11.093,0.853c-1.707,1.707-2.56,2.56-3.413,3.413c-1.707,0.853-2.56,3.413-2.56,5.973v44.373 c0,2.56,1.707,5.12,4.267,6.827l93.013,58.88c0.853,0.853,2.56,1.707,4.267,1.707s4.267-0.853,5.973-1.707l10.24-10.24 c24.747-25.6,46.08-46.933,58.027-61.44C459.868,288.087,460.722,285.527,459.868,282.967z M387.335,337.58l-5.12,5.973 l-83.627-52.907h-0.853V260.78h0.853l65.707,26.453c7.68,2.56,16.213,2.56,23.04-1.707c6.827-3.413,11.093-9.387,12.8-16.213 c0.853-1.707,0.853-2.56,0.853-4.267v-4.267l36.693,23.893C425.735,298.327,407.815,316.247,387.335,337.58z"/> </g> </g> </g>
</svg>