<svg xmlns="http://www.w3.org/2000/svg" width="2048" height="409" viewBox="0 0 2048 409" role="img" aria-label="Separador decorativo dorado con flecha hacia la izquierda">
  <defs>
    <linearGradient id="goldGradient" x1="180" y1="0" x2="1865" y2="0" gradientUnits="userSpaceOnUse">
      <stop offset="0" stop-color="#e5c983"/>
      <stop offset="0.66" stop-color="#d7ad5a"/>
      <stop offset="1" stop-color="#c9973f"/>
    </linearGradient>
  </defs>
  <g transform="translate(2048,0) scale(-1,1)" fill="url(#goldGradient)" fill-rule="evenodd" shape-rendering="geometricPrecision">
    <path d="M 1673.0 177.0 L 1664.0 173.0 L 1653.0 173.0 L 1652.0 174.0 L 1649.0 174.0 L 1641.0 178.0 L 1621.0 196.0 L 1605.0 205.0 L 1584.0 211.0 L 1571.0 212.0 L 1570.0 213.0 L 1557.0 213.0 L 1556.0 214.0 L 1549.0 214.0 L 1548.0 213.0 L 1418.0 213.0 L 1417.0 214.0 L 1405.0 214.0 L 1404.0 213.0 L 1347.0 213.0 L 1346.0 214.0 L 1319.0 214.0 L 1318.0 213.0 L 1274.0 213.0 L 1273.0 214.0 L 1270.0 214.0 L 1269.0 213.0 L 1268.0 214.0 L 1261.0 214.0 L 1260.0 213.0 L 1239.0 213.0 L 1238.0 214.0 L 1231.0 214.0 L 1230.0 213.0 L 1220.0 213.0 L 1219.0 214.0 L 1214.0 214.0 L 1213.0 213.0 L 1210.0 214.0 L 1186.0 214.0 L 1185.0 213.0 L 1182.0 213.0 L 1181.0 214.0 L 1116.0 214.0 L 1115.0 213.0 L 1114.0 214.0 L 183.0 214.0 L 181.0 216.0 L 182.0 220.0 L 184.0 221.0 L 1565.0 221.0 L 1566.0 222.0 L 1583.0 223.0 L 1584.0 224.0 L 1588.0 224.0 L 1605.0 229.0 L 1620.0 237.0 L 1639.0 254.0 L 1645.0 258.0 L 1653.0 261.0 L 1663.0 261.0 L 1664.0 260.0 L 1667.0 260.0 L 1673.0 257.0 L 1673.0 256.0 L 1672.0 257.0 L 1664.0 257.0 L 1655.0 254.0 L 1648.0 249.0 L 1636.0 237.0 L 1618.0 227.0 L 1601.0 222.0 L 1596.0 222.0 L 1589.0 220.0 L 1582.0 220.0 L 1581.0 219.0 L 1571.0 219.0 L 1570.0 217.0 L 1574.0 215.0 L 1583.0 215.0 L 1584.0 214.0 L 1601.0 212.0 L 1618.0 207.0 L 1633.0 199.0 L 1649.0 184.0 L 1655.0 180.0 L 1663.0 177.0 L 1671.0 177.0 L 1673.0 178.0 Z"/>
    <path d="M 1625.0 212.0 L 1625.0 213.0 L 1633.0 210.0 L 1636.0 210.0 L 1640.0 208.0 L 1652.0 206.0 L 1653.0 205.0 L 1663.0 205.0 L 1664.0 206.0 L 1667.0 206.0 L 1676.0 211.0 L 1681.0 216.0 L 1681.0 218.0 L 1675.0 224.0 L 1664.0 229.0 L 1651.0 229.0 L 1626.0 222.0 L 1648.0 234.0 L 1657.0 237.0 L 1672.0 237.0 L 1678.0 235.0 L 1689.0 228.0 L 1698.0 218.0 L 1697.0 215.0 L 1686.0 204.0 L 1677.0 199.0 L 1674.0 199.0 L 1670.0 197.0 L 1654.0 198.0 L 1648.0 200.0 Z"/>
    <path d="M 1700.0 235.0 L 1714.0 234.0 L 1715.0 233.0 L 1724.0 233.0 L 1725.0 232.0 L 1734.0 232.0 L 1735.0 231.0 L 1745.0 231.0 L 1746.0 230.0 L 1754.0 230.0 L 1755.0 229.0 L 1763.0 229.0 L 1764.0 228.0 L 1772.0 228.0 L 1773.0 227.0 L 1780.0 227.0 L 1781.0 226.0 L 1806.0 224.0 L 1807.0 223.0 L 1813.0 223.0 L 1814.0 222.0 L 1823.0 222.0 L 1824.0 221.0 L 1832.0 221.0 L 1833.0 220.0 L 1852.0 219.0 L 1853.0 218.0 L 1861.0 218.0 L 1864.0 217.0 L 1836.0 215.0 L 1835.0 214.0 L 1828.0 214.0 L 1827.0 213.0 L 1810.0 212.0 L 1809.0 211.0 L 1793.0 210.0 L 1792.0 209.0 L 1785.0 209.0 L 1784.0 208.0 L 1775.0 208.0 L 1774.0 207.0 L 1767.0 207.0 L 1766.0 206.0 L 1759.0 206.0 L 1758.0 205.0 L 1749.0 205.0 L 1748.0 204.0 L 1740.0 204.0 L 1739.0 203.0 L 1728.0 203.0 L 1727.0 202.0 L 1701.0 200.0 L 1707.0 202.0 L 1726.0 205.0 L 1735.0 208.0 L 1740.0 208.0 L 1741.0 209.0 L 1745.0 209.0 L 1751.0 211.0 L 1756.0 211.0 L 1761.0 213.0 L 1777.0 215.0 L 1779.0 216.0 L 1780.0 218.0 L 1779.0 219.0 L 1763.0 221.0 L 1753.0 224.0 L 1748.0 224.0 L 1743.0 226.0 L 1728.0 228.0 L 1727.0 229.0 L 1719.0 230.0 L 1718.0 231.0 L 1710.0 232.0 Z"/>
  </g>
</svg>
